#!OML:ASF F:\VICON\USERDATA\INSTALL\rory3\rory3.ASF
:FULLY-SPECIFIED
:DEGREES
2297
root -2.24804 17.7389 1.17471 45.7416 -46.1143 -2.74027
lowerback 33.4125 -6.9569 -13.874
upperback 11.6313 -13.4505 -5.40617
thorax -2.22831 -6.76933 5.33909
lowerneck -17.5157 4.2249 -6.3222
upperneck 32.0667 4.47584 8.67015
head 13.2811 2.03783 5.17858
rclavicle 9.54166e-015 5.92378e-014
rhumerus -101.809 -66.2004 77.8564
rradius 19.8622
rwrist -3.68516
rhand -21.5416 -2.0629
rfingers 7.12502
rthumb 4.8514 -31.9874
lclavicle 9.54166e-015 5.92378e-014
lhumerus 54.4666 32.649 97.9547
lradius -0.845638
lwrist -64.5858
lhand -15.9903 22.5653
lfingers 7.12502
lthumb 10.2095 52.2976
rfemur -82.1807 19.8633 -22.1527
rtibia 24.0304
rfoot 0.060929 -2.60025
rtoes -8.14683
lfemur -36.1497 -0.447548 -2.23185
ltibia 20.7996
lfoot -68.6654 18.5711
ltoes 42.0834
2298
root -2.24469 17.738 1.16987 45.6127 -46.152 -2.50614
lowerback 33.467 -6.96391 -13.8442
upperback 11.6078 -13.4582 -5.38256
thorax -2.27475 -6.76731 5.36054
lowerneck -17.298 4.29312 -6.31301
upperneck 31.9186 4.58851 8.58937
head 13.1627 2.08103 5.14062
rclavicle -5.08889e-014 6.16232e-014
rhumerus -101.794 -66.7979 77.8965
rradius 19.8407
rwrist -3.55863
rhand -21.6335 -2.10155
rfingers 7.12502
rthumb 4.76267 -32.028
lclavicle -5.08889e-014 6.16232e-014
lhumerus 54.6313 32.782 98.0592
lradius -0.829263
lwrist -65.0189
lhand -15.8149 22.5289
lfingers 7.12502
lthumb 10.3787 52.2528
rfemur -82.1939 19.7272 -22.2543
rtibia 24.0858
rfoot 0.0588691 -2.58639
rtoes -7.94766
lfemur -36.239 -0.492625 -2.3956
ltibia 20.789
lfoot -68.6197 18.4081
ltoes 42.2683
2299
root -2.23839 17.7346 1.15919 45.4715 -46.2081 -2.26831
lowerback 33.5318 -6.93561 -13.8741
upperback 11.5741 -13.4417 -5.33537
thorax -2.32019 -6.75592 5.42845
lowerneck -17.2194 4.30349 -6.3547
upperneck 31.9056 4.64098 8.50051
head 13.1369 2.08773 5.11557
rclavicle -3.18055e-014 3.93594e-014
rhumerus -100.8 -67.3974 76.8841
rradius 19.7997
rwrist -3.8225
rhand -21.7243 -2.30274
rfingers 7.12502
rthumb 4.67501 -32.2312
lclavicle -3.18055e-014 3.93594e-014
lhumerus 54.8425 32.9062 98.1482
lradius -0.958978
lwrist -65.4603
lhand -16.3455 22.655
lfingers 7.12502
lthumb 9.86688 52.4038
rfemur -82.2536 19.597 -22.3989
rtibia 24.1677
rfoot 0.129556 -2.56012
rtoes -7.70617
lfemur -36.3253 -0.511831 -2.56147
ltibia 20.7609
lfoot -68.5193 18.3918
ltoes 42.2941
2300
root -2.23243 17.7288 1.14913 45.4801 -46.2186 -2.18148
lowerback 33.4521 -6.90511 -13.8172
upperback 11.5734 -13.3689 -5.25625
thorax -2.29659 -6.72596 5.45692
lowerneck -17.2053 4.27586 -6.48765
upperneck 31.9159 4.63361 8.53173
head 13.1331 2.07367 5.15008
rclavicle 1.36764e-013 -1.03368e-014
rhumerus -99.9288 -67.9896 75.9879
rradius 19.7509
rwrist -4.02184
rhand -21.5536 -2.65667
rfingers 7.12502
rthumb 4.83985 -32.5814
lclavicle 1.36764e-013 -1.03368e-014
lhumerus 55.1166 32.9327 98.285
lradius -1.20656
lwrist -65.6864
lhand -17.0964 23.12
lfingers 7.12502
lthumb 9.14233 52.9018
rfemur -82.3842 19.4945 -22.4789
rtibia 24.266
rfoot 0.203911 -2.57289
rtoes -7.40079
lfemur -36.4141 -0.464827 -2.60205
ltibia 20.7001
lfoot -68.4826 18.228
ltoes 42.4573
2301
root -2.22608 17.7229 1.14107 45.5094 -46.1546 -2.13925
lowerback 33.3315 -6.93317 -13.6417
upperback 11.5847 -13.3286 -5.22542
thorax -2.27844 -6.70683 5.38644
lowerneck -17.1002 4.31711 -6.49559
upperneck 31.88 4.65801 8.61886
head 13.0885 2.09467 5.18168
rclavicle 3.18055e-014 1.43125e-014
rhumerus -99.9637 -68.5959 75.9933
rradius 19.678
rwrist -3.8046
rhand -21.5415 -2.56823
rfingers 7.12502
rthumb 4.85145 -32.4927
lclavicle 3.18055e-014 1.43125e-014
lhumerus 55.3647 33.0074 98.2673
lradius -1.4416
lwrist -65.6901
lhand -16.9492 22.9826
lfingers 7.12502
lthumb 9.28438 52.7582
rfemur -82.477 19.3993 -22.4856
rtibia 24.3766
rfoot 0.174341 -2.59179
rtoes -7.34186
lfemur -36.4895 -0.441809 -2.55929
ltibia 20.6356
lfoot -68.4255 17.9391
ltoes 42.8611
2302
root -2.21746 17.7195 1.13305 45.291 -46.1825 -1.84604
lowerback 33.2794 -6.94835 -13.5518
upperback 11.6059 -13.3144 -5.25617
thorax -2.26597 -6.69913 5.30438
lowerneck -16.9729 4.31209 -6.46514
upperneck 31.7491 4.6378 8.62835
head 13.009 2.09606 5.16333
rclavicle -2.54444e-014 -2.3059e-014
rhumerus -100.119 -69.1324 76.1062
rradius 19.6247
rwrist -3.54623
rhand -21.856 -1.99628
rfingers 7.12502
rthumb 4.54781 -31.9275
lclavicle -2.54444e-014 -2.3059e-014
lhumerus 55.5983 32.9882 98.2729
lradius -1.49137
lwrist -65.9653
lhand -16.0396 22.5337
lfingers 7.12502
lthumb 10.162 52.2683
rfemur -82.4665 19.2596 -22.6119
rtibia 24.4841
rfoot 0.165687 -2.5708
rtoes -7.41276
lfemur -36.5254 -0.523016 -2.7291
ltibia 20.5815
lfoot -68.3836 17.7758
ltoes 42.9793
2303
root -2.20742 17.719 1.12748 44.981 -46.2051 -1.50843
lowerback 33.2513 -6.94363 -13.4002
upperback 11.6446 -13.258 -5.25601
thorax -2.25666 -6.67217 5.21654
lowerneck -16.9052 4.20626 -6.50284
upperneck 31.584 4.55322 8.50262
head 12.9386 2.04908 5.09667
rclavicle 0 -1.39149e-014
rhumerus -100.276 -69.5828 76.3172
rradius 19.587
rwrist -3.40198
rhand -21.9059 -1.59171
rfingers 7.12502
rthumb 4.49965 -31.5239
lclavicle 0 -1.39149e-014
lhumerus 55.7539 32.9089 98.4494
lradius -1.33801
lwrist -66.3142
lhand -15.8448 22.7737
lfingers 7.12502
lthumb 10.3499 52.499
rfemur -82.3398 19.0925 -22.6036
rtibia 24.5965
rfoot 0.201257 -2.41738
rtoes -7.51836
lfemur -36.4901 -0.673075 -2.95436
ltibia 20.516
lfoot -68.3155 17.7775
ltoes 42.8176
2304
root -2.19758 17.7198 1.12368 44.8873 -46.0969 -1.41424
lowerback 33.0846 -7.00734 -13.0267
upperback 11.6846 -13.2006 -5.27479
thorax -2.24862 -6.63962 4.99571
lowerneck -16.8103 4.15437 -6.54799
upperneck 31.4965 4.4865 8.52989
head 12.8863 2.02312 5.09697
rclavicle -1.62208e-013 3.57812e-014
rhumerus -99.9027 -70.0267 75.8871
rradius 19.593
rwrist -3.46893
rhand -21.6144 -1.60632
rfingers 7.12502
rthumb 4.7811 -31.5324
lclavicle -1.62208e-013 3.57812e-014
lhumerus 55.8253 32.8817 98.471
lradius -1.23191
lwrist -66.2424
lhand -16.2215 22.8713
lfingers 7.12502
lthumb 9.98651 52.6144
rfemur -82.2624 18.9634 -22.4396
rtibia 24.7133
rfoot 0.20615 -2.28318
rtoes -7.60737
lfemur -36.4779 -0.773172 -2.96121
ltibia 20.4294
lfoot -68.1768 17.8448
ltoes 42.7678
2305
root -2.18803 17.7182 1.11627 44.8591 -45.9163 -1.51383
lowerback 32.9785 -7.09 -12.5689
upperback 11.7002 -13.1596 -5.35451
thorax -2.32049 -6.60315 4.68961
lowerneck -16.5837 4.17875 -6.47353
upperneck 31.4163 4.44781 8.64068
head 12.8063 2.02931 5.10686
rclavicle 1.27222e-014 5.68524e-014
rhumerus -98.5664 -70.4727 74.2942
rradius 19.6291
rwrist -3.77834
rhand -21.4316 -1.90251
rfingers 7.12502
rthumb 4.95762 -31.8245
lclavicle 1.27222e-014 5.68524e-014
lhumerus 55.8119 32.9593 98.175
lradius -1.24857
lwrist -66.1631
lhand -16.27 22.502
lfingers 7.12502
lthumb 9.93967 52.2474
rfemur -82.2558 19.0524 -22.4237
rtibia 24.8266
rfoot 0.116073 -2.47078
rtoes -7.83434
lfemur -36.3824 -0.818746 -2.77323
ltibia 20.3509
lfoot -68.062 17.5464
ltoes 43.0873
2306
root -2.17913 17.7155 1.10774 44.691 -45.7946 -1.47673
lowerback 32.9607 -7.05845 -12.4112
upperback 11.6951 -13.0701 -5.30209
thorax -2.3551 -6.55743 4.64886
lowerneck -16.3902 4.14727 -6.39795
upperneck 31.3395 4.4092 8.52274
head 12.7444 2.00818 5.02969
rclavicle 7.63333e-014 -1.39149e-014
rhumerus -97.5339 -70.9722 73.2135
rradius 19.6005
rwrist -3.90944
rhand -21.3311 -1.94043
rfingers 7.12502
rthumb 5.05468 -31.8601
lclavicle 7.63333e-014 -1.39149e-014
lhumerus 55.8623 33.1333 98.0335
lradius -1.25764
lwrist -66.2114
lhand -16.1356 22.4816
lfingers 7.12502
lthumb 10.0693 52.2207
rfemur -82.197 19.151 -22.5564
rtibia 24.9086
rfoot 0.0176348 -2.73266
rtoes -7.74363
lfemur -36.2677 -0.911185 -2.70111
ltibia 20.2948
lfoot -68.0074 17.2869
ltoes 43.1913
2307
root -2.16897 17.7153 1.09907 44.3764 -45.7307 -1.26502
lowerback 32.9974 -6.89815 -12.5689
upperback 11.679 -12.9072 -5.05673
thorax -2.3168 -6.49659 4.93128
lowerneck -16.4309 4.035 -6.42027
upperneck 31.3942 4.35819 8.2251
head 12.7924 1.94747 4.91711
rclavicle 2.54444e-014 -3.97569e-016
rhumerus -98.0585 -71.5682 74.0608
rradius 19.5374
rwrist -3.69157
rhand -20.8381 -2.2125
rfingers 7.12502
rthumb 5.5307 -32.1203
lclavicle 2.54444e-014 -3.97569e-016
lhumerus 56.0261 33.3082 98.2316
lradius -1.19795
lwrist -66.1508
lhand -16.3681 22.5955
lfingers 7.12502
lthumb 9.84499 52.3454
rfemur -82.0492 19.1808 -22.7199
rtibia 24.9703
rfoot -0.0552446 -2.90681
rtoes -7.41222
lfemur -36.1573 -1.0719 -2.78803
ltibia 20.2376
lfoot -67.9631 17.2456
ltoes 43.1291
2308
root -2.15842 17.7174 1.0901 44.2395 -45.5913 -1.20162
lowerback 32.865 -6.82897 -12.4855
upperback 11.686 -12.7674 -4.90115
thorax -2.26185 -6.44077 5.00098
lowerneck -16.4944 3.95814 -6.54064
upperneck 31.3653 4.28234 8.2765
head 12.7961 1.91222 4.94965
rclavicle -1.90833e-014 -7.31528e-014
rhumerus -98.8158 -72.1249 75.0296
rradius 19.486
rwrist -3.56645
rhand -20.2195 -2.49732
rfingers 7.12502
rthumb 6.12787 -32.3887
lclavicle -1.90833e-014 -7.31528e-014
lhumerus 56.1438 33.359 98.2992
lradius -1.14183
lwrist -66.0355
lhand -16.5152 22.6777
lfingers 7.12502
lthumb 9.70314 52.4342
rfemur -81.9524 19.1684 -22.7041
rtibia 25.0155
rfoot -0.118925 -3.01235
rtoes -7.12397
lfemur -36.1187 -1.17838 -2.74
ltibia 20.1832
lfoot -67.8938 17.2366
ltoes 43.1504
